<svg width="152" height="51" viewBox="0 0 152 51" fill="none" xmlns="http://www.w3.org/2000/svg">
<rect width="1.07774" height="57.9296" rx="0.53887" transform="matrix(0.81153 0.584311 -0.776559 0.630044 33.8026 4.04517)" fill="white"/>
<rect width="1.07774" height="57.9296" rx="0.53887" transform="matrix(0.81153 0.584311 -0.776559 0.630044 25.9858 27.9431)" fill="white"/>
<rect width="1.07774" height="37.2809" rx="0.53887" transform="matrix(0.81153 0.584311 -0.776559 0.630044 59.0852 0.198242)" fill="white"/>
<rect width="1.07774" height="57.9296" rx="0.53887" transform="matrix(0.81153 0.584311 -0.776559 0.630044 60.3239 17.9207)" fill="white"/>
<rect width="1.07774" height="57.9296" rx="0.53887" transform="matrix(0.81153 0.584311 -0.776559 0.630044 52.5071 41.8186)" fill="white"/>
<rect width="1.07774" height="37.2809" rx="0.53887" transform="matrix(0.81153 0.584311 -0.776559 0.630044 85.6066 14.0737)" fill="white"/>
<rect width="1.07774" height="57.9296" rx="0.53887" transform="matrix(0.81153 0.584311 -0.776559 0.630044 99.3213 27.0994)" fill="white"/>
<rect width="1.07774" height="57.9296" rx="0.53887" transform="matrix(0.81153 0.584311 -0.776559 0.630044 91.5045 50.9971)" fill="white"/>
<rect width="1.07774" height="37.2809" rx="0.53887" transform="matrix(0.81153 0.584311 -0.776559 0.630044 124.604 23.2522)" fill="white"/>
<rect width="1.07774" height="57.9296" rx="0.53887" transform="matrix(0.81153 0.584311 -0.776559 0.630044 125.843 40.9746)" fill="white"/>
<rect width="1.07774" height="37.2809" rx="0.53887" transform="matrix(0.81153 0.584311 -0.776559 0.630044 151.125 37.1279)" fill="white"/>
</svg>
