<svg width="20" height="19" viewBox="0 0 20 19" fill="none" xmlns="http://www.w3.org/2000/svg">
<g clip-path="url(#clip0_11_486)">
<path d="M11.7455 8.3388L10.078 10.0063L8.40269 8.3388L7.29368 9.44781L8.969 11.1153L7.30154 12.7827L8.41056 13.8917L10.078 12.2243L11.7455 13.8917L12.8545 12.7827L11.187 11.1153L12.8545 9.44781L11.7455 8.3388ZM12.8309 3.24991L12.0444 2.46338H8.11167L7.32514 3.24991H4.57227V4.82298H15.5838V3.24991H12.8309ZM5.3588 15.0479C5.3588 15.9131 6.06668 16.621 6.93187 16.621H13.2242C14.0893 16.621 14.7972 15.9131 14.7972 15.0479V5.60952H5.3588V15.0479ZM6.93187 7.18259H13.2242V15.0479H6.93187V7.18259Z" fill="#F33F3F"/>
</g>
<defs>
<clipPath id="clip0_11_486">
<rect width="18.8768" height="18.8768" fill="white" transform="translate(0.639648 0.10376)"/>
</clipPath>
</defs>
</svg>
